<svg id="visual" viewBox="0 0 900 600" width="900" height="600" xmlns="http://www.w3.org/2000/svg" xmlns:xlink="http://www.w3.org/1999/xlink" version="1.1"><rect x="0" y="0" width="900" height="600" fill="#fbfdff"></rect><defs><linearGradient id="grad1_0" x1="33.3%" y1="100%" x2="100%" y2="0%"><stop offset="20%" stop-color="#fbfdff" stop-opacity="1"></stop><stop offset="80%" stop-color="#fbfdff" stop-opacity="1"></stop></linearGradient></defs><defs><linearGradient id="grad2_0" x1="0%" y1="100%" x2="66.7%" y2="0%"><stop offset="20%" stop-color="#fbfdff" stop-opacity="1"></stop><stop offset="80%" stop-color="#fbfdff" stop-opacity="1"></stop></linearGradient></defs><g transform="translate(900, 600)"><path d="M-486.7 0C-427.1 -57.5 -367.4 -115.1 -334.3 -193C-301.2 -270.9 -294.7 -369.2 -243.4 -421.5C-192.1 -473.9 -96 -480.3 0 -486.7L0 0Z" fill="#000000"></path></g><g transform="translate(0, 0)"><path d="M486.7 0C443.2 66.9 399.7 133.8 364.6 210.5C329.5 287.2 302.7 373.9 243.4 421.5C184 469.2 92 478 0 486.7L0 0Z" fill="#000000"></path></g></svg>