<svg id="visual" viewBox="0 0 900 600" width="900" height="600" xmlns="http://www.w3.org/2000/svg" xmlns:xlink="http://www.w3.org/1999/xlink" version="1.1"><g stroke-width="1" stroke-linejoin="bevel"><path d="M455 290L466 328.9L480 285Z" fill="#3b3f41" stroke="#3b3f41"></path><path d="M466 328.9L512 338.9L480 285Z" fill="#3b3f41" stroke="#3b3f41"></path><path d="M512 338.9L526 328.9L480 285Z" fill="#3b3f41" stroke="#3b3f41"></path><path d="M480 285L436 258.1L455 290Z" fill="#161a1b" stroke="#161a1b"></path><path d="M455 290L420 337.9L466 328.9Z" fill="#161a1b" stroke="#161a1b"></path><path d="M396 287L420 337.9L455 290Z" fill="#282c2e" stroke="#282c2e"></path><path d="M499 389.7L523 374.7L512 338.9Z" fill="#4f5456" stroke="#4f5456"></path><path d="M529 261.1L497 239.1L480 285Z" fill="#000000" stroke="#000000"></path><path d="M480 285L497 239.1L436 258.1Z" fill="#4f5456" stroke="#4f5456"></path><path d="M547 302L529 261.1L480 285Z" fill="#3b3f41" stroke="#3b3f41"></path><path d="M526 328.9L547 302L480 285Z" fill="#64696b" stroke="#64696b"></path><path d="M436 258.1L396 287L455 290Z" fill="#4f5456" stroke="#4f5456"></path><path d="M399 228.3L396 269.1L436 258.1Z" fill="#000000" stroke="#000000"></path><path d="M436 258.1L396 269.1L396 287Z" fill="#64696b" stroke="#64696b"></path><path d="M499 389.7L512 338.9L466 328.9Z" fill="#282c2e" stroke="#282c2e"></path><path d="M512 338.9L523 374.7L526 328.9Z" fill="#d9dfe1" stroke="#d9dfe1"></path><path d="M570 328.9L568 313L547 302Z" fill="#c0c6c8" stroke="#c0c6c8"></path><path d="M461 401.7L499 389.7L466 328.9Z" fill="#282c2e" stroke="#282c2e"></path><path d="M377 369.7L415 374.7L420 337.9Z" fill="#161a1b" stroke="#161a1b"></path><path d="M420 337.9L415 374.7L466 328.9Z" fill="#64696b" stroke="#64696b"></path><path d="M525 225.3L503 223.3L497 239.1Z" fill="#a8aeb0" stroke="#a8aeb0"></path><path d="M497 239.1L451 219.3L436 258.1Z" fill="#4f5456" stroke="#4f5456"></path><path d="M503 223.3L451 219.3L497 239.1Z" fill="#d9dfe1" stroke="#d9dfe1"></path><path d="M415 374.7L461 401.7L466 328.9Z" fill="#c0c6c8" stroke="#c0c6c8"></path><path d="M570 328.9L547 302L526 328.9Z" fill="#d9dfe1" stroke="#d9dfe1"></path><path d="M547 302L570 253.1L529 261.1Z" fill="#a8aeb0" stroke="#a8aeb0"></path><path d="M529 261.1L525 225.3L497 239.1Z" fill="#000000" stroke="#000000"></path><path d="M570 253.1L525 225.3L529 261.1Z" fill="#4f5456" stroke="#4f5456"></path><path d="M523 374.7L570 328.9L526 328.9Z" fill="#7a7f81" stroke="#7a7f81"></path><path d="M416 414.6L460 411.6L461 401.7Z" fill="#7a7f81" stroke="#7a7f81"></path><path d="M461 401.7L481 414.6L499 389.7Z" fill="#64696b" stroke="#64696b"></path><path d="M451 219.3L399 228.3L436 258.1Z" fill="#3b3f41" stroke="#3b3f41"></path><path d="M460 411.6L481 414.6L461 401.7Z" fill="#919698" stroke="#919698"></path><path d="M556 427.6L583 378.7L523 374.7Z" fill="#161a1b" stroke="#161a1b"></path><path d="M359 295L367 343.9L396 287Z" fill="#a8aeb0" stroke="#a8aeb0"></path><path d="M396 287L367 343.9L420 337.9Z" fill="#7a7f81" stroke="#7a7f81"></path><path d="M415 374.7L416 414.6L461 401.7Z" fill="#d9dfe1" stroke="#d9dfe1"></path><path d="M359 295L396 287L396 269.1Z" fill="#4f5456" stroke="#4f5456"></path><path d="M646 297L570 253.1L568 313Z" fill="#64696b" stroke="#64696b"></path><path d="M568 313L570 253.1L547 302Z" fill="#282c2e" stroke="#282c2e"></path><path d="M367 252.1L359 295L396 269.1Z" fill="#000000" stroke="#000000"></path><path d="M367 343.9L377 369.7L420 337.9Z" fill="#d9dfe1" stroke="#d9dfe1"></path><path d="M399 228.3L367 252.1L396 269.1Z" fill="#161a1b" stroke="#161a1b"></path><path d="M377 369.7L416 414.6L415 374.7Z" fill="#919698" stroke="#919698"></path><path d="M478 476.4L550 453.4L481 414.6Z" fill="#d9dfe1" stroke="#d9dfe1"></path><path d="M556 427.6L523 374.7L499 389.7Z" fill="#3b3f41" stroke="#3b3f41"></path><path d="M523 374.7L583 378.7L570 328.9Z" fill="#000000" stroke="#000000"></path><path d="M570 328.9L620 326.9L568 313Z" fill="#7a7f81" stroke="#7a7f81"></path><path d="M502 161.4L439 175.4L451 219.3Z" fill="#3b3f41" stroke="#3b3f41"></path><path d="M451 219.3L439 175.4L399 228.3Z" fill="#4f5456" stroke="#4f5456"></path><path d="M399 228.3L353 225.3L367 252.1Z" fill="#c0c6c8" stroke="#c0c6c8"></path><path d="M502 161.4L451 219.3L503 223.3Z" fill="#7a7f81" stroke="#7a7f81"></path><path d="M390 168.4L353 225.3L399 228.3Z" fill="#64696b" stroke="#64696b"></path><path d="M367 252.1L330 245.1L359 295Z" fill="#3b3f41" stroke="#3b3f41"></path><path d="M318 284L329 336.9L359 295Z" fill="#282c2e" stroke="#282c2e"></path><path d="M359 295L329 336.9L367 343.9Z" fill="#7a7f81" stroke="#7a7f81"></path><path d="M367 343.9L324 395.7L377 369.7Z" fill="#161a1b" stroke="#161a1b"></path><path d="M377 369.7L359 411.6L416 414.6Z" fill="#919698" stroke="#919698"></path><path d="M550 453.4L556 427.6L481 414.6Z" fill="#3b3f41" stroke="#3b3f41"></path><path d="M481 414.6L556 427.6L499 389.7Z" fill="#64696b" stroke="#64696b"></path><path d="M553 157.4L502 161.4L525 225.3Z" fill="#a8aeb0" stroke="#a8aeb0"></path><path d="M525 225.3L502 161.4L503 223.3Z" fill="#a8aeb0" stroke="#a8aeb0"></path><path d="M638 391.7L620 326.9L583 378.7Z" fill="#161a1b" stroke="#161a1b"></path><path d="M583 378.7L620 326.9L570 328.9Z" fill="#919698" stroke="#919698"></path><path d="M324 395.7L359 411.6L377 369.7Z" fill="#7a7f81" stroke="#7a7f81"></path><path d="M451 473.4L481 414.6L460 411.6Z" fill="#000000" stroke="#000000"></path><path d="M353 225.3L330 245.1L367 252.1Z" fill="#919698" stroke="#919698"></path><path d="M330 245.1L318 284L359 295Z" fill="#919698" stroke="#919698"></path><path d="M644 228.3L590 199.3L570 253.1Z" fill="#919698" stroke="#919698"></path><path d="M570 253.1L590 199.3L525 225.3Z" fill="#d9dfe1" stroke="#d9dfe1"></path><path d="M448 137.6L390 168.4L439 175.4Z" fill="#7a7f81" stroke="#7a7f81"></path><path d="M439 175.4L390 168.4L399 228.3Z" fill="#919698" stroke="#919698"></path><path d="M353 225.3L331 201.3L330 245.1Z" fill="#c0c6c8" stroke="#c0c6c8"></path><path d="M451 473.4L460 411.6L416 414.6Z" fill="#d9dfe1" stroke="#d9dfe1"></path><path d="M556 427.6L586 428.6L583 378.7Z" fill="#7a7f81" stroke="#7a7f81"></path><path d="M550 453.4L586 428.6L556 427.6Z" fill="#a8aeb0" stroke="#a8aeb0"></path><path d="M411 474.4L451 473.4L416 414.6Z" fill="#000000" stroke="#000000"></path><path d="M590 199.3L553 157.4L525 225.3Z" fill="#64696b" stroke="#64696b"></path><path d="M502 161.4L448 137.6L439 175.4Z" fill="#282c2e" stroke="#282c2e"></path><path d="M451 473.4L478 476.4L481 414.6Z" fill="#919698" stroke="#919698"></path><path d="M502 113.6L448 137.6L502 161.4Z" fill="#282c2e" stroke="#282c2e"></path><path d="M265 354.9L324 395.7L329 336.9Z" fill="#c0c6c8" stroke="#c0c6c8"></path><path d="M329 336.9L324 395.7L367 343.9Z" fill="#c0c6c8" stroke="#c0c6c8"></path><path d="M372 480.4L411 474.4L416 414.6Z" fill="#3b3f41" stroke="#3b3f41"></path><path d="M664 325.9L646 297L620 326.9Z" fill="#3b3f41" stroke="#3b3f41"></path><path d="M620 326.9L646 297L568 313Z" fill="#282c2e" stroke="#282c2e"></path><path d="M390 168.4L331 201.3L353 225.3Z" fill="#7a7f81" stroke="#7a7f81"></path><path d="M255 255.1L253 308L318 284Z" fill="#c0c6c8" stroke="#c0c6c8"></path><path d="M599 140.6L541 142.6L553 157.4Z" fill="#4f5456" stroke="#4f5456"></path><path d="M553 157.4L541 142.6L502 161.4Z" fill="#000000" stroke="#000000"></path><path d="M372 480.4L416 414.6L359 411.6Z" fill="#3b3f41" stroke="#3b3f41"></path><path d="M465 531.3L511 524.3L478 476.4Z" fill="#919698" stroke="#919698"></path><path d="M646 297L645 254.1L570 253.1Z" fill="#3b3f41" stroke="#3b3f41"></path><path d="M590 199.3L584 161.4L553 157.4Z" fill="#7a7f81" stroke="#7a7f81"></path><path d="M633 183.4L584 161.4L590 199.3Z" fill="#000000" stroke="#000000"></path><path d="M586 428.6L638 391.7L583 378.7Z" fill="#d9dfe1" stroke="#d9dfe1"></path><path d="M645 254.1L644 228.3L570 253.1Z" fill="#c0c6c8" stroke="#c0c6c8"></path><path d="M374 134.6L348 160.4L390 168.4Z" fill="#a8aeb0" stroke="#a8aeb0"></path><path d="M390 168.4L348 160.4L331 201.3Z" fill="#64696b" stroke="#64696b"></path><path d="M638 391.7L664 325.9L620 326.9Z" fill="#d9dfe1" stroke="#d9dfe1"></path><path d="M646 297L661 250.1L645 254.1Z" fill="#000000" stroke="#000000"></path><path d="M645 254.1L661 250.1L644 228.3Z" fill="#161a1b" stroke="#161a1b"></path><path d="M531 82.7L502 113.6L541 142.6Z" fill="#161a1b" stroke="#161a1b"></path><path d="M541 142.6L502 113.6L502 161.4Z" fill="#d9dfe1" stroke="#d9dfe1"></path><path d="M407 114.6L374 134.6L390 168.4Z" fill="#3b3f41" stroke="#3b3f41"></path><path d="M407 114.6L390 168.4L448 137.6Z" fill="#7a7f81" stroke="#7a7f81"></path><path d="M678 313L661 250.1L646 297Z" fill="#3b3f41" stroke="#3b3f41"></path><path d="M601 474.4L619 440.6L586 428.6Z" fill="#3b3f41" stroke="#3b3f41"></path><path d="M586 428.6L619 440.6L638 391.7Z" fill="#64696b" stroke="#64696b"></path><path d="M718 345.9L678 313L664 325.9Z" fill="#000000" stroke="#000000"></path><path d="M601 474.4L586 428.6L550 453.4Z" fill="#919698" stroke="#919698"></path><path d="M315 438.6L372 480.4L359 411.6Z" fill="#3b3f41" stroke="#3b3f41"></path><path d="M411 474.4L402 504.3L451 473.4Z" fill="#c0c6c8" stroke="#c0c6c8"></path><path d="M460 97.7L407 114.6L448 137.6Z" fill="#3b3f41" stroke="#3b3f41"></path><path d="M663 222.3L633 183.4L644 228.3Z" fill="#000000" stroke="#000000"></path><path d="M644 228.3L633 183.4L590 199.3Z" fill="#7a7f81" stroke="#7a7f81"></path><path d="M584 161.4L599 140.6L553 157.4Z" fill="#a8aeb0" stroke="#a8aeb0"></path><path d="M323 112.6L348 160.4L374 134.6Z" fill="#7a7f81" stroke="#7a7f81"></path><path d="M323 112.6L325 163.4L348 160.4Z" fill="#7a7f81" stroke="#7a7f81"></path><path d="M348 160.4L325 163.4L331 201.3Z" fill="#7a7f81" stroke="#7a7f81"></path><path d="M253 308L329 336.9L318 284Z" fill="#282c2e" stroke="#282c2e"></path><path d="M324 395.7L315 438.6L359 411.6Z" fill="#000000" stroke="#000000"></path><path d="M281 399.7L315 438.6L324 395.7Z" fill="#64696b" stroke="#64696b"></path><path d="M669 383.7L664 325.9L638 391.7Z" fill="#c0c6c8" stroke="#c0c6c8"></path><path d="M664 325.9L678 313L646 297Z" fill="#64696b" stroke="#64696b"></path><path d="M502 113.6L460 97.7L448 137.6Z" fill="#64696b" stroke="#64696b"></path><path d="M633 183.4L599 140.6L584 161.4Z" fill="#d9dfe1" stroke="#d9dfe1"></path><path d="M502 113.6L492 97.7L460 97.7Z" fill="#d9dfe1" stroke="#d9dfe1"></path><path d="M661 250.1L663 222.3L644 228.3Z" fill="#282c2e" stroke="#282c2e"></path><path d="M721 252.1L663 222.3L661 250.1Z" fill="#3b3f41" stroke="#3b3f41"></path><path d="M349 519.3L402 504.3L372 480.4Z" fill="#4f5456" stroke="#4f5456"></path><path d="M372 480.4L402 504.3L411 474.4Z" fill="#64696b" stroke="#64696b"></path><path d="M579 496.3L601 474.4L550 453.4Z" fill="#4f5456" stroke="#4f5456"></path><path d="M531 82.7L492 97.7L502 113.6Z" fill="#a8aeb0" stroke="#a8aeb0"></path><path d="M318 284L330 245.1L255 255.1Z" fill="#7a7f81" stroke="#7a7f81"></path><path d="M253 308L265 354.9L329 336.9Z" fill="#d9dfe1" stroke="#d9dfe1"></path><path d="M265 354.9L281 399.7L324 395.7Z" fill="#64696b" stroke="#64696b"></path><path d="M579 496.3L550 453.4L529 522.3Z" fill="#000000" stroke="#000000"></path><path d="M669 420.6L638 391.7L619 440.6Z" fill="#3b3f41" stroke="#3b3f41"></path><path d="M669 420.6L669 383.7L638 391.7Z" fill="#282c2e" stroke="#282c2e"></path><path d="M601 474.4L624 461.4L619 440.6Z" fill="#c0c6c8" stroke="#c0c6c8"></path><path d="M276 207.3L330 245.1L331 201.3Z" fill="#919698" stroke="#919698"></path><path d="M529 522.3L550 453.4L478 476.4Z" fill="#c0c6c8" stroke="#c0c6c8"></path><path d="M601 474.4L619 497.3L624 461.4Z" fill="#a8aeb0" stroke="#a8aeb0"></path><path d="M269 184.4L276 207.3L331 201.3Z" fill="#282c2e" stroke="#282c2e"></path><path d="M465 531.3L478 476.4L451 473.4Z" fill="#3b3f41" stroke="#3b3f41"></path><path d="M276 207.3L255 255.1L330 245.1Z" fill="#d9dfe1" stroke="#d9dfe1"></path><path d="M511 524.3L529 522.3L478 476.4Z" fill="#7a7f81" stroke="#7a7f81"></path><path d="M402 504.3L465 531.3L451 473.4Z" fill="#a8aeb0" stroke="#a8aeb0"></path><path d="M511 524.3L548 555.1L529 522.3Z" fill="#4f5456" stroke="#4f5456"></path><path d="M460 97.7L399 90.7L407 114.6Z" fill="#7a7f81" stroke="#7a7f81"></path><path d="M407 114.6L399 90.7L374 134.6Z" fill="#a8aeb0" stroke="#a8aeb0"></path><path d="M325 163.4L269 184.4L331 201.3Z" fill="#919698" stroke="#919698"></path><path d="M440 46.9L399 90.7L460 97.7Z" fill="#a8aeb0" stroke="#a8aeb0"></path><path d="M659 469.4L669 420.6L619 440.6Z" fill="#4f5456" stroke="#4f5456"></path><path d="M718 345.9L712 302L678 313Z" fill="#4f5456" stroke="#4f5456"></path><path d="M596 78.7L531 82.7L541 142.6Z" fill="#161a1b" stroke="#161a1b"></path><path d="M492 97.7L440 46.9L460 97.7Z" fill="#7a7f81" stroke="#7a7f81"></path><path d="M633 183.4L633 137.6L599 140.6Z" fill="#919698" stroke="#919698"></path><path d="M599 140.6L596 78.7L541 142.6Z" fill="#282c2e" stroke="#282c2e"></path><path d="M676 168.4L633 137.6L633 183.4Z" fill="#4f5456" stroke="#4f5456"></path><path d="M268 114.6L269 184.4L325 163.4Z" fill="#a8aeb0" stroke="#a8aeb0"></path><path d="M276 207.3L226 239.1L255 255.1Z" fill="#919698" stroke="#919698"></path><path d="M277 485.4L302 477.4L315 438.6Z" fill="#3b3f41" stroke="#3b3f41"></path><path d="M315 438.6L302 477.4L372 480.4Z" fill="#161a1b" stroke="#161a1b"></path><path d="M402 504.3L407 546.1L465 531.3Z" fill="#a8aeb0" stroke="#a8aeb0"></path><path d="M252 413.6L315 438.6L281 399.7Z" fill="#161a1b" stroke="#161a1b"></path><path d="M718 345.9L664 325.9L669 383.7Z" fill="#282c2e" stroke="#282c2e"></path><path d="M678 313L712 302L661 250.1Z" fill="#282c2e" stroke="#282c2e"></path><path d="M663 222.3L676 168.4L633 183.4Z" fill="#161a1b" stroke="#161a1b"></path><path d="M579 496.3L619 497.3L601 474.4Z" fill="#a8aeb0" stroke="#a8aeb0"></path><path d="M624 461.4L659 469.4L619 440.6Z" fill="#d9dfe1" stroke="#d9dfe1"></path><path d="M628 548.1L619 497.3L579 496.3Z" fill="#161a1b" stroke="#161a1b"></path><path d="M208 337.9L237 369.7L265 354.9Z" fill="#3b3f41" stroke="#3b3f41"></path><path d="M265 354.9L237 369.7L281 399.7Z" fill="#a8aeb0" stroke="#a8aeb0"></path><path d="M208 337.9L265 354.9L253 308Z" fill="#c0c6c8" stroke="#c0c6c8"></path><path d="M350 90.7L323 112.6L374 134.6Z" fill="#3b3f41" stroke="#3b3f41"></path><path d="M237 369.7L252 413.6L281 399.7Z" fill="#282c2e" stroke="#282c2e"></path><path d="M302 477.4L349 519.3L372 480.4Z" fill="#000000" stroke="#000000"></path><path d="M713 433.6L705 381.7L669 420.6Z" fill="#3b3f41" stroke="#3b3f41"></path><path d="M669 420.6L705 381.7L669 383.7Z" fill="#919698" stroke="#919698"></path><path d="M226 239.1L226 283L255 255.1Z" fill="#a8aeb0" stroke="#a8aeb0"></path><path d="M255 255.1L226 283L253 308Z" fill="#000000" stroke="#000000"></path><path d="M737 199.3L676 168.4L663 222.3Z" fill="#282c2e" stroke="#282c2e"></path><path d="M399 90.7L350 90.7L374 134.6Z" fill="#000000" stroke="#000000"></path><path d="M368 50.9L350 90.7L399 90.7Z" fill="#4f5456" stroke="#4f5456"></path><path d="M349 519.3L407 546.1L402 504.3Z" fill="#64696b" stroke="#64696b"></path><path d="M465 531.3L477 564.1L511 524.3Z" fill="#4f5456" stroke="#4f5456"></path><path d="M619 497.3L659 469.4L624 461.4Z" fill="#7a7f81" stroke="#7a7f81"></path><path d="M705 381.7L718 345.9L669 383.7Z" fill="#000000" stroke="#000000"></path><path d="M407 546.1L439 556.1L465 531.3Z" fill="#64696b" stroke="#64696b"></path><path d="M529 522.3L548 555.1L579 496.3Z" fill="#282c2e" stroke="#282c2e"></path><path d="M219 226.3L226 239.1L276 207.3Z" fill="#919698" stroke="#919698"></path><path d="M219 226.3L276 207.3L269 184.4Z" fill="#4f5456" stroke="#4f5456"></path><path d="M765 263.1L721 252.1L712 302Z" fill="#282c2e" stroke="#282c2e"></path><path d="M712 302L721 252.1L661 250.1Z" fill="#c0c6c8" stroke="#c0c6c8"></path><path d="M439 556.1L477 564.1L465 531.3Z" fill="#d9dfe1" stroke="#d9dfe1"></path><path d="M663 96.7L626 98.7L633 137.6Z" fill="#d9dfe1" stroke="#d9dfe1"></path><path d="M633 137.6L626 98.7L599 140.6Z" fill="#d9dfe1" stroke="#d9dfe1"></path><path d="M626 98.7L596 78.7L599 140.6Z" fill="#282c2e" stroke="#282c2e"></path><path d="M509 32.9L440 46.9L492 97.7Z" fill="#7a7f81" stroke="#7a7f81"></path><path d="M477 564.1L548 555.1L511 524.3Z" fill="#161a1b" stroke="#161a1b"></path><path d="M619 497.3L677 496.3L659 469.4Z" fill="#000000" stroke="#000000"></path><path d="M509 32.9L492 97.7L531 82.7Z" fill="#d9dfe1" stroke="#d9dfe1"></path><path d="M302 477.4L332 529.3L349 519.3Z" fill="#d9dfe1" stroke="#d9dfe1"></path><path d="M349 519.3L353 562.1L407 546.1Z" fill="#a8aeb0" stroke="#a8aeb0"></path><path d="M405 600L454 600L439 556.1Z" fill="#4f5456" stroke="#4f5456"></path><path d="M277 485.4L332 529.3L302 477.4Z" fill="#7a7f81" stroke="#7a7f81"></path><path d="M596 78.7L541 52.9L531 82.7Z" fill="#4f5456" stroke="#4f5456"></path><path d="M252 413.6L277 485.4L315 438.6Z" fill="#000000" stroke="#000000"></path><path d="M225 156.4L219 226.3L269 184.4Z" fill="#c0c6c8" stroke="#c0c6c8"></path><path d="M226 239.1L190 268.1L226 283Z" fill="#7a7f81" stroke="#7a7f81"></path><path d="M226 283L208 337.9L253 308Z" fill="#919698" stroke="#919698"></path><path d="M237 369.7L220 419.6L252 413.6Z" fill="#000000" stroke="#000000"></path><path d="M252 413.6L220 469.4L277 485.4Z" fill="#161a1b" stroke="#161a1b"></path><path d="M190 268.1L208 337.9L226 283Z" fill="#3b3f41" stroke="#3b3f41"></path><path d="M550 600L572 557.1L548 555.1Z" fill="#d9dfe1" stroke="#d9dfe1"></path><path d="M548 555.1L572 557.1L579 496.3Z" fill="#c0c6c8" stroke="#c0c6c8"></path><path d="M350 90.7L315 85.7L323 112.6Z" fill="#d9dfe1" stroke="#d9dfe1"></path><path d="M323 112.6L268 114.6L325 163.4Z" fill="#3b3f41" stroke="#3b3f41"></path><path d="M322 56.9L315 85.7L350 90.7Z" fill="#7a7f81" stroke="#7a7f81"></path><path d="M659 469.4L713 433.6L669 420.6Z" fill="#919698" stroke="#919698"></path><path d="M705 381.7L749 357.9L718 345.9Z" fill="#64696b" stroke="#64696b"></path><path d="M720 485.4L713 433.6L659 469.4Z" fill="#4f5456" stroke="#4f5456"></path><path d="M189 380.7L220 419.6L237 369.7Z" fill="#c0c6c8" stroke="#c0c6c8"></path><path d="M414 28.9L368 50.9L399 90.7Z" fill="#161a1b" stroke="#161a1b"></path><path d="M749 357.9L747 316L718 345.9Z" fill="#282c2e" stroke="#282c2e"></path><path d="M718 345.9L747 316L712 302Z" fill="#d9dfe1" stroke="#d9dfe1"></path><path d="M505 0L509 32.9L550 0Z" fill="#919698" stroke="#919698"></path><path d="M541 52.9L509 32.9L531 82.7Z" fill="#000000" stroke="#000000"></path><path d="M440 46.9L414 28.9L399 90.7Z" fill="#7a7f81" stroke="#7a7f81"></path><path d="M285 85.7L323 112.6L315 85.7Z" fill="#4f5456" stroke="#4f5456"></path><path d="M285 85.7L268 114.6L323 112.6Z" fill="#161a1b" stroke="#161a1b"></path><path d="M628 548.1L677 496.3L619 497.3Z" fill="#64696b" stroke="#64696b"></path><path d="M332 529.3L353 562.1L349 519.3Z" fill="#3b3f41" stroke="#3b3f41"></path><path d="M439 556.1L454 600L477 564.1Z" fill="#3b3f41" stroke="#3b3f41"></path><path d="M315 572.1L353 562.1L332 529.3Z" fill="#64696b" stroke="#64696b"></path><path d="M756 419.6L749 357.9L705 381.7Z" fill="#282c2e" stroke="#282c2e"></path><path d="M624 36.9L595 43.9L596 78.7Z" fill="#64696b" stroke="#64696b"></path><path d="M596 78.7L595 43.9L541 52.9Z" fill="#4f5456" stroke="#4f5456"></path><path d="M676 168.4L676 111.6L633 137.6Z" fill="#3b3f41" stroke="#3b3f41"></path><path d="M726 145.6L676 111.6L676 168.4Z" fill="#3b3f41" stroke="#3b3f41"></path><path d="M737 199.3L663 222.3L721 252.1Z" fill="#a8aeb0" stroke="#a8aeb0"></path><path d="M462 0L414 28.9L440 46.9Z" fill="#282c2e" stroke="#282c2e"></path><path d="M164 284L190 268.1L145 253.1Z" fill="#161a1b" stroke="#161a1b"></path><path d="M219 226.3L190 268.1L226 239.1Z" fill="#282c2e" stroke="#282c2e"></path><path d="M208 337.9L189 380.7L237 369.7Z" fill="#a8aeb0" stroke="#a8aeb0"></path><path d="M676 111.6L663 96.7L633 137.6Z" fill="#919698" stroke="#919698"></path><path d="M765 263.1L737 199.3L721 252.1Z" fill="#161a1b" stroke="#161a1b"></path><path d="M572 557.1L628 548.1L579 496.3Z" fill="#d9dfe1" stroke="#d9dfe1"></path><path d="M268 114.6L225 156.4L269 184.4Z" fill="#3b3f41" stroke="#3b3f41"></path><path d="M322 56.9L285 85.7L315 85.7Z" fill="#161a1b" stroke="#161a1b"></path><path d="M268 114.6L233 119.6L225 156.4Z" fill="#000000" stroke="#000000"></path><path d="M322 56.9L350 90.7L368 50.9Z" fill="#161a1b" stroke="#161a1b"></path><path d="M624 36.9L596 78.7L626 98.7Z" fill="#c0c6c8" stroke="#c0c6c8"></path><path d="M353 0L322 56.9L368 50.9Z" fill="#3b3f41" stroke="#3b3f41"></path><path d="M170 359.9L189 380.7L208 337.9Z" fill="#282c2e" stroke="#282c2e"></path><path d="M405 600L439 556.1L407 546.1Z" fill="#161a1b" stroke="#161a1b"></path><path d="M477 564.1L491 600L548 555.1Z" fill="#c0c6c8" stroke="#c0c6c8"></path><path d="M572 557.1L614 600L628 548.1Z" fill="#282c2e" stroke="#282c2e"></path><path d="M454 600L491 600L477 564.1Z" fill="#4f5456" stroke="#4f5456"></path><path d="M792 274.1L765 263.1L747 316Z" fill="#161a1b" stroke="#161a1b"></path><path d="M747 316L765 263.1L712 302Z" fill="#161a1b" stroke="#161a1b"></path><path d="M180 445.6L220 469.4L220 419.6Z" fill="#a8aeb0" stroke="#a8aeb0"></path><path d="M220 419.6L220 469.4L252 413.6Z" fill="#a8aeb0" stroke="#a8aeb0"></path><path d="M267 539.1L315 572.1L332 529.3Z" fill="#3b3f41" stroke="#3b3f41"></path><path d="M372 600L407 546.1L353 562.1Z" fill="#4f5456" stroke="#4f5456"></path><path d="M372 600L405 600L407 546.1Z" fill="#3b3f41" stroke="#3b3f41"></path><path d="M734 157.4L676 168.4L737 199.3Z" fill="#282c2e" stroke="#282c2e"></path><path d="M734 157.4L726 145.6L676 168.4Z" fill="#7a7f81" stroke="#7a7f81"></path><path d="M676 111.6L706 50.9L663 96.7Z" fill="#919698" stroke="#919698"></path><path d="M663 96.7L624 36.9L626 98.7Z" fill="#000000" stroke="#000000"></path><path d="M773 161.4L734 157.4L737 199.3Z" fill="#c0c6c8" stroke="#c0c6c8"></path><path d="M214 69.7L233 119.6L268 114.6Z" fill="#000000" stroke="#000000"></path><path d="M171 214.3L190 268.1L219 226.3Z" fill="#000000" stroke="#000000"></path><path d="M214 69.7L268 114.6L285 85.7Z" fill="#7a7f81" stroke="#7a7f81"></path><path d="M220 469.4L236 497.3L277 485.4Z" fill="#919698" stroke="#919698"></path><path d="M491 600L550 600L548 555.1Z" fill="#c0c6c8" stroke="#c0c6c8"></path><path d="M164 284L170 359.9L208 337.9Z" fill="#000000" stroke="#000000"></path><path d="M189 380.7L180 445.6L220 419.6Z" fill="#4f5456" stroke="#4f5456"></path><path d="M762 471.4L756 419.6L713 433.6Z" fill="#7a7f81" stroke="#7a7f81"></path><path d="M713 433.6L756 419.6L705 381.7Z" fill="#919698" stroke="#919698"></path><path d="M749 357.9L776 371.7L747 316Z" fill="#c0c6c8" stroke="#c0c6c8"></path><path d="M720 485.4L659 469.4L677 496.3Z" fill="#4f5456" stroke="#4f5456"></path><path d="M734 507.3L720 485.4L677 496.3Z" fill="#7a7f81" stroke="#7a7f81"></path><path d="M505 0L462 0L509 32.9Z" fill="#000000" stroke="#000000"></path><path d="M509 32.9L462 0L440 46.9Z" fill="#4f5456" stroke="#4f5456"></path><path d="M414 28.9L408 0L368 50.9Z" fill="#64696b" stroke="#64696b"></path><path d="M171 214.3L219 226.3L164 183.4Z" fill="#7a7f81" stroke="#7a7f81"></path><path d="M190 268.1L164 284L208 337.9Z" fill="#000000" stroke="#000000"></path><path d="M550 0L509 32.9L541 52.9Z" fill="#a8aeb0" stroke="#a8aeb0"></path><path d="M267 539.1L332 529.3L277 485.4Z" fill="#d9dfe1" stroke="#d9dfe1"></path><path d="M252 530.3L267 539.1L277 485.4Z" fill="#c0c6c8" stroke="#c0c6c8"></path><path d="M680 31.9L624 36.9L663 96.7Z" fill="#161a1b" stroke="#161a1b"></path><path d="M595 43.9L550 0L541 52.9Z" fill="#919698" stroke="#919698"></path><path d="M322 600L372 600L353 562.1Z" fill="#161a1b" stroke="#161a1b"></path><path d="M756 419.6L776 371.7L749 357.9Z" fill="#919698" stroke="#919698"></path><path d="M462 0L408 0L414 28.9Z" fill="#a8aeb0" stroke="#a8aeb0"></path><path d="M259 600L322 600L315 572.1Z" fill="#4f5456" stroke="#4f5456"></path><path d="M236 497.3L252 530.3L277 485.4Z" fill="#919698" stroke="#919698"></path><path d="M188 517.3L252 530.3L236 497.3Z" fill="#282c2e" stroke="#282c2e"></path><path d="M550 600L581 600L572 557.1Z" fill="#d9dfe1" stroke="#d9dfe1"></path><path d="M628 548.1L683 556.1L677 496.3Z" fill="#000000" stroke="#000000"></path><path d="M164 183.4L219 226.3L225 156.4Z" fill="#000000" stroke="#000000"></path><path d="M734 157.4L776 139.6L726 145.6Z" fill="#a8aeb0" stroke="#a8aeb0"></path><path d="M765 263.1L769 202.3L737 199.3Z" fill="#000000" stroke="#000000"></path><path d="M796 218.3L769 202.3L765 263.1Z" fill="#282c2e" stroke="#282c2e"></path><path d="M590 0L550 0L595 43.9Z" fill="#7a7f81" stroke="#7a7f81"></path><path d="M824 293L792 274.1L747 316Z" fill="#c0c6c8" stroke="#c0c6c8"></path><path d="M150 372.7L180 445.6L189 380.7Z" fill="#282c2e" stroke="#282c2e"></path><path d="M220 469.4L188 517.3L236 497.3Z" fill="#161a1b" stroke="#161a1b"></path><path d="M581 600L614 600L572 557.1Z" fill="#282c2e" stroke="#282c2e"></path><path d="M614 600L683 556.1L628 548.1Z" fill="#d9dfe1" stroke="#d9dfe1"></path><path d="M720 485.4L762 471.4L713 433.6Z" fill="#4f5456" stroke="#4f5456"></path><path d="M129 356.9L150 372.7L170 359.9Z" fill="#64696b" stroke="#64696b"></path><path d="M170 359.9L150 372.7L189 380.7Z" fill="#7a7f81" stroke="#7a7f81"></path><path d="M129 356.9L170 359.9L164 284Z" fill="#000000" stroke="#000000"></path><path d="M408 0L353 0L368 50.9Z" fill="#3b3f41" stroke="#3b3f41"></path><path d="M322 56.9L260 33.9L285 85.7Z" fill="#64696b" stroke="#64696b"></path><path d="M624 36.9L590 0L595 43.9Z" fill="#c0c6c8" stroke="#c0c6c8"></path><path d="M626 0L590 0L624 36.9Z" fill="#c0c6c8" stroke="#c0c6c8"></path><path d="M259 600L315 572.1L267 539.1Z" fill="#282c2e" stroke="#282c2e"></path><path d="M315 572.1L322 600L353 562.1Z" fill="#a8aeb0" stroke="#a8aeb0"></path><path d="M120 215.3L145 253.1L171 214.3Z" fill="#3b3f41" stroke="#3b3f41"></path><path d="M171 214.3L145 253.1L190 268.1Z" fill="#c0c6c8" stroke="#c0c6c8"></path><path d="M683 556.1L734 507.3L677 496.3Z" fill="#d9dfe1" stroke="#d9dfe1"></path><path d="M756 419.6L811 388.7L776 371.7Z" fill="#161a1b" stroke="#161a1b"></path><path d="M164 125.6L225 156.4L233 119.6Z" fill="#282c2e" stroke="#282c2e"></path><path d="M164 125.6L164 183.4L225 156.4Z" fill="#7a7f81" stroke="#7a7f81"></path><path d="M734 507.3L762 471.4L720 485.4Z" fill="#7a7f81" stroke="#7a7f81"></path><path d="M776 371.7L820 357.9L747 316Z" fill="#4f5456" stroke="#4f5456"></path><path d="M769 202.3L773 161.4L737 199.3Z" fill="#4f5456" stroke="#4f5456"></path><path d="M726 145.6L729 90.7L676 111.6Z" fill="#919698" stroke="#919698"></path><path d="M810 160.4L773 161.4L769 202.3Z" fill="#3b3f41" stroke="#3b3f41"></path><path d="M776 139.6L729 90.7L726 145.6Z" fill="#000000" stroke="#000000"></path><path d="M792 274.1L796 218.3L765 263.1Z" fill="#161a1b" stroke="#161a1b"></path><path d="M664 0L626 0L624 36.9Z" fill="#a8aeb0" stroke="#a8aeb0"></path><path d="M311 0L260 33.9L322 56.9Z" fill="#4f5456" stroke="#4f5456"></path><path d="M706 50.9L680 31.9L663 96.7Z" fill="#c0c6c8" stroke="#c0c6c8"></path><path d="M353 0L311 0L322 56.9Z" fill="#d9dfe1" stroke="#d9dfe1"></path><path d="M118 294L129 356.9L164 284Z" fill="#161a1b" stroke="#161a1b"></path><path d="M137 466.4L167 487.4L180 445.6Z" fill="#161a1b" stroke="#161a1b"></path><path d="M764 74.7L706 50.9L729 90.7Z" fill="#a8aeb0" stroke="#a8aeb0"></path><path d="M729 90.7L706 50.9L676 111.6Z" fill="#282c2e" stroke="#282c2e"></path><path d="M810 160.4L776 139.6L773 161.4Z" fill="#d9dfe1" stroke="#d9dfe1"></path><path d="M773 161.4L776 139.6L734 157.4Z" fill="#7a7f81" stroke="#7a7f81"></path><path d="M813 445.6L811 388.7L756 419.6Z" fill="#161a1b" stroke="#161a1b"></path><path d="M792 274.1L845 268.1L796 218.3Z" fill="#000000" stroke="#000000"></path><path d="M260 33.9L214 69.7L285 85.7Z" fill="#4f5456" stroke="#4f5456"></path><path d="M811 388.7L820 357.9L776 371.7Z" fill="#161a1b" stroke="#161a1b"></path><path d="M820 357.9L824 293L747 316Z" fill="#64696b" stroke="#64696b"></path><path d="M796 218.3L810 160.4L769 202.3Z" fill="#000000" stroke="#000000"></path><path d="M167 487.4L220 469.4L180 445.6Z" fill="#64696b" stroke="#64696b"></path><path d="M167 487.4L188 517.3L220 469.4Z" fill="#a8aeb0" stroke="#a8aeb0"></path><path d="M209 567.1L259 600L267 539.1Z" fill="#161a1b" stroke="#161a1b"></path><path d="M101 268.1L118 294L145 253.1Z" fill="#7a7f81" stroke="#7a7f81"></path><path d="M145 253.1L118 294L164 284Z" fill="#3b3f41" stroke="#3b3f41"></path><path d="M131 436.6L180 445.6L150 372.7Z" fill="#4f5456" stroke="#4f5456"></path><path d="M214 69.7L189 91.7L233 119.6Z" fill="#919698" stroke="#919698"></path><path d="M164 183.4L120 215.3L171 214.3Z" fill="#161a1b" stroke="#161a1b"></path><path d="M189 91.7L164 125.6L233 119.6Z" fill="#282c2e" stroke="#282c2e"></path><path d="M691 600L717 566.1L683 556.1Z" fill="#c0c6c8" stroke="#c0c6c8"></path><path d="M683 556.1L717 566.1L734 507.3Z" fill="#000000" stroke="#000000"></path><path d="M734 507.3L765 519.3L762 471.4Z" fill="#161a1b" stroke="#161a1b"></path><path d="M762 471.4L813 445.6L756 419.6Z" fill="#000000" stroke="#000000"></path><path d="M705 0L664 0L680 31.9Z" fill="#c0c6c8" stroke="#c0c6c8"></path><path d="M680 31.9L664 0L624 36.9Z" fill="#3b3f41" stroke="#3b3f41"></path><path d="M260 33.9L224 41.9L214 69.7Z" fill="#d9dfe1" stroke="#d9dfe1"></path><path d="M214 69.7L176 51.9L189 91.7Z" fill="#a8aeb0" stroke="#a8aeb0"></path><path d="M134 121.6L137 153.4L164 125.6Z" fill="#c0c6c8" stroke="#c0c6c8"></path><path d="M242 0L224 41.9L260 33.9Z" fill="#7a7f81" stroke="#7a7f81"></path><path d="M209 567.1L267 539.1L252 530.3Z" fill="#000000" stroke="#000000"></path><path d="M717 566.1L765 519.3L734 507.3Z" fill="#7a7f81" stroke="#7a7f81"></path><path d="M137 153.4L120 215.3L164 183.4Z" fill="#919698" stroke="#919698"></path><path d="M175 555.1L209 567.1L188 517.3Z" fill="#64696b" stroke="#64696b"></path><path d="M101 436.6L131 436.6L85 380.7Z" fill="#282c2e" stroke="#282c2e"></path><path d="M131 436.6L150 372.7L85 380.7Z" fill="#3b3f41" stroke="#3b3f41"></path><path d="M614 600L691 600L683 556.1Z" fill="#4f5456" stroke="#4f5456"></path><path d="M779 556.1L794 500.3L765 519.3Z" fill="#919698" stroke="#919698"></path><path d="M134 121.6L164 125.6L146 96.7Z" fill="#3b3f41" stroke="#3b3f41"></path><path d="M164 125.6L137 153.4L164 183.4Z" fill="#3b3f41" stroke="#3b3f41"></path><path d="M838 188.4L810 160.4L796 218.3Z" fill="#919698" stroke="#919698"></path><path d="M776 139.6L764 74.7L729 90.7Z" fill="#3b3f41" stroke="#3b3f41"></path><path d="M706 50.9L705 0L680 31.9Z" fill="#a8aeb0" stroke="#a8aeb0"></path><path d="M794 500.3L813 445.6L762 471.4Z" fill="#161a1b" stroke="#161a1b"></path><path d="M849 400.7L856 354.9L820 357.9Z" fill="#a8aeb0" stroke="#a8aeb0"></path><path d="M188 517.3L209 567.1L252 530.3Z" fill="#4f5456" stroke="#4f5456"></path><path d="M175 555.1L188 517.3L123 524.3Z" fill="#282c2e" stroke="#282c2e"></path><path d="M131 436.6L137 466.4L180 445.6Z" fill="#7a7f81" stroke="#7a7f81"></path><path d="M120 215.3L101 268.1L145 253.1Z" fill="#64696b" stroke="#64696b"></path><path d="M118 294L92 328.9L129 356.9Z" fill="#919698" stroke="#919698"></path><path d="M102 200.3L101 268.1L120 215.3Z" fill="#7a7f81" stroke="#7a7f81"></path><path d="M815 72.7L764 74.7L776 139.6Z" fill="#282c2e" stroke="#282c2e"></path><path d="M856 354.9L845 314L820 357.9Z" fill="#919698" stroke="#919698"></path><path d="M820 357.9L845 314L824 293Z" fill="#161a1b" stroke="#161a1b"></path><path d="M824 293L845 268.1L792 274.1Z" fill="#000000" stroke="#000000"></path><path d="M311 0L254 0L260 33.9Z" fill="#64696b" stroke="#64696b"></path><path d="M146 96.7L164 125.6L189 91.7Z" fill="#64696b" stroke="#64696b"></path><path d="M845 314L845 268.1L824 293Z" fill="#c0c6c8" stroke="#c0c6c8"></path><path d="M842 140.6L810 142.6L810 160.4Z" fill="#919698" stroke="#919698"></path><path d="M810 160.4L810 142.6L776 139.6Z" fill="#a8aeb0" stroke="#a8aeb0"></path><path d="M765 519.3L794 500.3L762 471.4Z" fill="#000000" stroke="#000000"></path><path d="M779 556.1L765 519.3L717 566.1Z" fill="#161a1b" stroke="#161a1b"></path><path d="M80 315L92 328.9L118 294Z" fill="#282c2e" stroke="#282c2e"></path><path d="M131 436.6L101 436.6L137 466.4Z" fill="#3b3f41" stroke="#3b3f41"></path><path d="M171 600L229 600L209 567.1Z" fill="#161a1b" stroke="#161a1b"></path><path d="M209 567.1L229 600L259 600Z" fill="#161a1b" stroke="#161a1b"></path><path d="M254 0L242 0L260 33.9Z" fill="#7a7f81" stroke="#7a7f81"></path><path d="M100 153.4L102 200.3L137 153.4Z" fill="#d9dfe1" stroke="#d9dfe1"></path><path d="M137 153.4L102 200.3L120 215.3Z" fill="#161a1b" stroke="#161a1b"></path><path d="M101 268.1L80 315L118 294Z" fill="#d9dfe1" stroke="#d9dfe1"></path><path d="M845 268.1L841 201.3L796 218.3Z" fill="#282c2e" stroke="#282c2e"></path><path d="M146 96.7L189 91.7L176 51.9Z" fill="#161a1b" stroke="#161a1b"></path><path d="M841 201.3L838 188.4L796 218.3Z" fill="#d9dfe1" stroke="#d9dfe1"></path><path d="M759 27.9L705 0L706 50.9Z" fill="#7a7f81" stroke="#7a7f81"></path><path d="M123 524.3L188 517.3L167 487.4Z" fill="#d9dfe1" stroke="#d9dfe1"></path><path d="M176 51.9L214 69.7L224 41.9Z" fill="#4f5456" stroke="#4f5456"></path><path d="M849 400.7L820 357.9L811 388.7Z" fill="#a8aeb0" stroke="#a8aeb0"></path><path d="M845 314L900 303L845 268.1Z" fill="#161a1b" stroke="#161a1b"></path><path d="M900 197.3L838 188.4L841 201.3Z" fill="#282c2e" stroke="#282c2e"></path><path d="M849 400.7L811 388.7L848 430.6Z" fill="#3b3f41" stroke="#3b3f41"></path><path d="M794 500.3L825 468.4L813 445.6Z" fill="#d9dfe1" stroke="#d9dfe1"></path><path d="M848 430.6L811 388.7L813 445.6Z" fill="#282c2e" stroke="#282c2e"></path><path d="M168 0L176 51.9L224 41.9Z" fill="#d9dfe1" stroke="#d9dfe1"></path><path d="M691 600L730 600L717 566.1Z" fill="#161a1b" stroke="#161a1b"></path><path d="M848 514.3L860 455.4L825 468.4Z" fill="#d9dfe1" stroke="#d9dfe1"></path><path d="M58 313L80 315L47 262.1Z" fill="#4f5456" stroke="#4f5456"></path><path d="M85 380.7L150 372.7L129 356.9Z" fill="#3b3f41" stroke="#3b3f41"></path><path d="M85 380.7L129 356.9L92 328.9Z" fill="#3b3f41" stroke="#3b3f41"></path><path d="M137 466.4L123 524.3L167 487.4Z" fill="#7a7f81" stroke="#7a7f81"></path><path d="M42 330.9L85 380.7L92 328.9Z" fill="#919698" stroke="#919698"></path><path d="M730 600L779 556.1L717 566.1Z" fill="#3b3f41" stroke="#3b3f41"></path><path d="M860 455.4L848 430.6L825 468.4Z" fill="#919698" stroke="#919698"></path><path d="M825 468.4L848 430.6L813 445.6Z" fill="#a8aeb0" stroke="#a8aeb0"></path><path d="M900 357.9L900 303L856 354.9Z" fill="#3b3f41" stroke="#3b3f41"></path><path d="M764 74.7L759 27.9L706 50.9Z" fill="#d9dfe1" stroke="#d9dfe1"></path><path d="M793 57.9L759 27.9L764 74.7Z" fill="#c0c6c8" stroke="#c0c6c8"></path><path d="M793 57.9L764 74.7L815 72.7Z" fill="#3b3f41" stroke="#3b3f41"></path><path d="M134 121.6L100 153.4L137 153.4Z" fill="#4f5456" stroke="#4f5456"></path><path d="M47 262.1L80 315L101 268.1Z" fill="#64696b" stroke="#64696b"></path><path d="M107 117.6L100 153.4L134 121.6Z" fill="#c0c6c8" stroke="#c0c6c8"></path><path d="M107 117.6L134 121.6L146 96.7Z" fill="#a8aeb0" stroke="#a8aeb0"></path><path d="M900 173.4L842 140.6L838 188.4Z" fill="#64696b" stroke="#64696b"></path><path d="M838 188.4L842 140.6L810 160.4Z" fill="#282c2e" stroke="#282c2e"></path><path d="M900 267.1L841 201.3L845 268.1Z" fill="#000000" stroke="#000000"></path><path d="M815 72.7L776 139.6L810 142.6Z" fill="#d9dfe1" stroke="#d9dfe1"></path><path d="M54 475.4L101 482.4L101 436.6Z" fill="#7a7f81" stroke="#7a7f81"></path><path d="M101 436.6L101 482.4L137 466.4Z" fill="#000000" stroke="#000000"></path><path d="M105 84.7L107 117.6L146 96.7Z" fill="#7a7f81" stroke="#7a7f81"></path><path d="M101 482.4L123 524.3L137 466.4Z" fill="#c0c6c8" stroke="#c0c6c8"></path><path d="M175 555.1L171 600L209 567.1Z" fill="#c0c6c8" stroke="#c0c6c8"></path><path d="M80 315L42 330.9L92 328.9Z" fill="#64696b" stroke="#64696b"></path><path d="M85 380.7L41 442.6L101 436.6Z" fill="#4f5456" stroke="#4f5456"></path><path d="M47 262.1L101 268.1L102 200.3Z" fill="#919698" stroke="#919698"></path><path d="M47 262.1L102 200.3L37 212.3Z" fill="#282c2e" stroke="#282c2e"></path><path d="M842 140.6L815 72.7L810 142.6Z" fill="#282c2e" stroke="#282c2e"></path><path d="M793 57.9L780 0L759 27.9Z" fill="#161a1b" stroke="#161a1b"></path><path d="M848 514.3L825 468.4L794 500.3Z" fill="#7a7f81" stroke="#7a7f81"></path><path d="M900 410.6L900 384.7L849 400.7Z" fill="#d9dfe1" stroke="#d9dfe1"></path><path d="M97 531.3L125 540.1L123 524.3Z" fill="#919698" stroke="#919698"></path><path d="M123 524.3L125 540.1L175 555.1Z" fill="#282c2e" stroke="#282c2e"></path><path d="M139 600L171 600L175 555.1Z" fill="#64696b" stroke="#64696b"></path><path d="M37 212.3L102 200.3L43 156.4Z" fill="#a8aeb0" stroke="#a8aeb0"></path><path d="M730 600L781 600L779 556.1Z" fill="#3b3f41" stroke="#3b3f41"></path><path d="M779 556.1L808 570.1L794 500.3Z" fill="#282c2e" stroke="#282c2e"></path><path d="M781 600L808 570.1L779 556.1Z" fill="#64696b" stroke="#64696b"></path><path d="M122 36.9L105 84.7L146 96.7Z" fill="#7a7f81" stroke="#7a7f81"></path><path d="M43 156.4L102 200.3L100 153.4Z" fill="#c0c6c8" stroke="#c0c6c8"></path><path d="M122 36.9L146 96.7L176 51.9Z" fill="#d9dfe1" stroke="#d9dfe1"></path><path d="M900 357.9L856 354.9L900 384.7Z" fill="#161a1b" stroke="#161a1b"></path><path d="M856 354.9L900 303L845 314Z" fill="#000000" stroke="#000000"></path><path d="M0 301L42 330.9L58 313Z" fill="#919698" stroke="#919698"></path><path d="M58 313L42 330.9L80 315Z" fill="#919698" stroke="#919698"></path><path d="M808 570.1L848 514.3L794 500.3Z" fill="#000000" stroke="#000000"></path><path d="M900 384.7L856 354.9L849 400.7Z" fill="#c0c6c8" stroke="#c0c6c8"></path><path d="M900 303L900 267.1L845 268.1Z" fill="#4f5456" stroke="#4f5456"></path><path d="M842 140.6L863 98.7L815 72.7Z" fill="#4f5456" stroke="#4f5456"></path><path d="M242 0L168 0L224 41.9Z" fill="#282c2e" stroke="#282c2e"></path><path d="M849 400.7L848 430.6L900 410.6Z" fill="#64696b" stroke="#64696b"></path><path d="M805 0L780 0L793 57.9Z" fill="#64696b" stroke="#64696b"></path><path d="M759 27.9L780 0L705 0Z" fill="#4f5456" stroke="#4f5456"></path><path d="M900 410.6L848 430.6L860 455.4Z" fill="#3b3f41" stroke="#3b3f41"></path><path d="M101 482.4L97 531.3L123 524.3Z" fill="#4f5456" stroke="#4f5456"></path><path d="M125 540.1L139 600L175 555.1Z" fill="#161a1b" stroke="#161a1b"></path><path d="M53 497.3L97 531.3L101 482.4Z" fill="#919698" stroke="#919698"></path><path d="M168 0L122 36.9L176 51.9Z" fill="#c0c6c8" stroke="#c0c6c8"></path><path d="M900 480.4L900 410.6L860 455.4Z" fill="#161a1b" stroke="#161a1b"></path><path d="M900 267.1L900 197.3L841 201.3Z" fill="#3b3f41" stroke="#3b3f41"></path><path d="M815 72.7L805 0L793 57.9Z" fill="#3b3f41" stroke="#3b3f41"></path><path d="M900 134.6L863 98.7L842 140.6Z" fill="#a8aeb0" stroke="#a8aeb0"></path><path d="M103 562.1L139 600L125 540.1Z" fill="#161a1b" stroke="#161a1b"></path><path d="M43 156.4L100 153.4L47 114.6Z" fill="#3b3f41" stroke="#3b3f41"></path><path d="M47 262.1L0 301L58 313Z" fill="#a8aeb0" stroke="#a8aeb0"></path><path d="M100 153.4L107 117.6L47 114.6Z" fill="#3b3f41" stroke="#3b3f41"></path><path d="M781 600L805 600L808 570.1Z" fill="#4f5456" stroke="#4f5456"></path><path d="M808 570.1L856 539.1L848 514.3Z" fill="#a8aeb0" stroke="#a8aeb0"></path><path d="M0 334.9L31 380.7L42 330.9Z" fill="#7a7f81" stroke="#7a7f81"></path><path d="M42 330.9L31 380.7L85 380.7Z" fill="#4f5456" stroke="#4f5456"></path><path d="M29 567.1L103 562.1L97 531.3Z" fill="#a8aeb0" stroke="#a8aeb0"></path><path d="M97 531.3L103 562.1L125 540.1Z" fill="#282c2e" stroke="#282c2e"></path><path d="M900 197.3L900 173.4L838 188.4Z" fill="#282c2e" stroke="#282c2e"></path><path d="M846 600L856 539.1L808 570.1Z" fill="#3b3f41" stroke="#3b3f41"></path><path d="M848 514.3L900 480.4L860 455.4Z" fill="#7a7f81" stroke="#7a7f81"></path><path d="M41 442.6L54 475.4L101 436.6Z" fill="#d9dfe1" stroke="#d9dfe1"></path><path d="M31 380.7L41 442.6L85 380.7Z" fill="#c0c6c8" stroke="#c0c6c8"></path><path d="M863 45.9L805 0L815 72.7Z" fill="#7a7f81" stroke="#7a7f81"></path><path d="M47 114.6L107 117.6L105 84.7Z" fill="#3b3f41" stroke="#3b3f41"></path><path d="M0 476.4L53 497.3L54 475.4Z" fill="#282c2e" stroke="#282c2e"></path><path d="M54 475.4L53 497.3L101 482.4Z" fill="#282c2e" stroke="#282c2e"></path><path d="M900 173.4L900 134.6L842 140.6Z" fill="#161a1b" stroke="#161a1b"></path><path d="M863 98.7L863 45.9L815 72.7Z" fill="#64696b" stroke="#64696b"></path><path d="M900 529.3L900 480.4L848 514.3Z" fill="#7a7f81" stroke="#7a7f81"></path><path d="M168 0L124 0L122 36.9Z" fill="#3b3f41" stroke="#3b3f41"></path><path d="M57 70.7L47 114.6L105 84.7Z" fill="#282c2e" stroke="#282c2e"></path><path d="M92 28.9L105 84.7L122 36.9Z" fill="#7a7f81" stroke="#7a7f81"></path><path d="M0 265.1L47 262.1L0 218.3Z" fill="#4f5456" stroke="#4f5456"></path><path d="M124 0L92 28.9L122 36.9Z" fill="#7a7f81" stroke="#7a7f81"></path><path d="M900 86.7L863 45.9L863 98.7Z" fill="#d9dfe1" stroke="#d9dfe1"></path><path d="M47 262.1L37 212.3L0 218.3Z" fill="#000000" stroke="#000000"></path><path d="M0 265.1L0 301L47 262.1Z" fill="#c0c6c8" stroke="#c0c6c8"></path><path d="M31 380.7L0 442.6L41 442.6Z" fill="#c0c6c8" stroke="#c0c6c8"></path><path d="M41 442.6L0 476.4L54 475.4Z" fill="#d9dfe1" stroke="#d9dfe1"></path><path d="M0 301L0 334.9L42 330.9Z" fill="#c0c6c8" stroke="#c0c6c8"></path><path d="M0 218.3L37 212.3L0 182.4Z" fill="#3b3f41" stroke="#3b3f41"></path><path d="M805 600L846 600L808 570.1Z" fill="#919698" stroke="#919698"></path><path d="M856 539.1L900 529.3L848 514.3Z" fill="#000000" stroke="#000000"></path><path d="M92 28.9L57 70.7L105 84.7Z" fill="#919698" stroke="#919698"></path><path d="M0 182.4L37 212.3L43 156.4Z" fill="#3b3f41" stroke="#3b3f41"></path><path d="M0 334.9L0 381.7L31 380.7Z" fill="#3b3f41" stroke="#3b3f41"></path><path d="M0 182.4L43 156.4L0 133.6Z" fill="#282c2e" stroke="#282c2e"></path><path d="M900 134.6L900 86.7L863 98.7Z" fill="#282c2e" stroke="#282c2e"></path><path d="M29 567.1L97 531.3L53 497.3Z" fill="#7a7f81" stroke="#7a7f81"></path><path d="M29 567.1L88 600L103 562.1Z" fill="#d9dfe1" stroke="#d9dfe1"></path><path d="M103 562.1L88 600L139 600Z" fill="#7a7f81" stroke="#7a7f81"></path><path d="M900 556.1L900 529.3L856 539.1Z" fill="#64696b" stroke="#64696b"></path><path d="M124 0L93 0L92 28.9Z" fill="#64696b" stroke="#64696b"></path><path d="M92 28.9L35 55.9L57 70.7Z" fill="#a8aeb0" stroke="#a8aeb0"></path><path d="M0 133.6L43 156.4L47 114.6Z" fill="#c0c6c8" stroke="#c0c6c8"></path><path d="M0 133.6L47 114.6L0 98.7Z" fill="#282c2e" stroke="#282c2e"></path><path d="M863 45.9L854 0L805 0Z" fill="#4f5456" stroke="#4f5456"></path><path d="M900 0L854 0L863 45.9Z" fill="#3b3f41" stroke="#3b3f41"></path><path d="M0 381.7L0 442.6L31 380.7Z" fill="#282c2e" stroke="#282c2e"></path><path d="M846 600L900 556.1L856 539.1Z" fill="#a8aeb0" stroke="#a8aeb0"></path><path d="M900 86.7L900 53.9L863 45.9Z" fill="#4f5456" stroke="#4f5456"></path><path d="M0 442.6L0 476.4L41 442.6Z" fill="#000000" stroke="#000000"></path><path d="M0 98.7L47 114.6L57 70.7Z" fill="#7a7f81" stroke="#7a7f81"></path><path d="M29 0L35 55.9L92 28.9Z" fill="#4f5456" stroke="#4f5456"></path><path d="M0 476.4L0 499.3L53 497.3Z" fill="#161a1b" stroke="#161a1b"></path><path d="M0 542.1L29 567.1L53 497.3Z" fill="#3b3f41" stroke="#3b3f41"></path><path d="M35 55.9L0 98.7L57 70.7Z" fill="#a8aeb0" stroke="#a8aeb0"></path><path d="M0 600L43 600L29 567.1Z" fill="#c0c6c8" stroke="#c0c6c8"></path><path d="M29 567.1L43 600L88 600Z" fill="#282c2e" stroke="#282c2e"></path><path d="M846 600L900 600L900 556.1Z" fill="#64696b" stroke="#64696b"></path><path d="M900 53.9L900 0L863 45.9Z" fill="#3b3f41" stroke="#3b3f41"></path><path d="M0 499.3L0 542.1L53 497.3Z" fill="#3b3f41" stroke="#3b3f41"></path><path d="M93 0L29 0L92 28.9Z" fill="#a8aeb0" stroke="#a8aeb0"></path><path d="M35 55.9L0 45.9L0 98.7Z" fill="#919698" stroke="#919698"></path><path d="M29 0L0 45.9L35 55.9Z" fill="#000000" stroke="#000000"></path><path d="M0 542.1L0 600L29 567.1Z" fill="#919698" stroke="#919698"></path><path d="M29 0L0 0L0 45.9Z" fill="#4f5456" stroke="#4f5456"></path></g></svg>