<svg width="13568" height="13568" viewBox="0 0 13568 13568" fill="none" xmlns="http://www.w3.org/2000/svg">
<mask id="mask0_201_17" style="mask-type:luminance" maskUnits="userSpaceOnUse" x="0" y="0" width="13568" height="13568">
<path d="M13568 0H0V13568H13568V0Z" fill="white"/>
</mask>
<g mask="url(#mask0_201_17)">
<path d="M12072.6 10303.3C10135.2 13218.2 5642.33 13639.2 3275.04 12064.1C353.761 10120.4 -444.458 6178.87 1492.87 3263.98C3430.19 349.084 7923.97 -67.6104 10291.3 1507.5C13212.5 3451.21 14009.9 7388.43 12072.6 10303.3Z" fill="white"/>
<path d="M6012.23 6269.38C5741.79 6676.29 5850.67 7224.86 6258.47 7496.19C6666.26 7767.52 7216.54 7657.53 7486.98 7250.62C7757.42 6843.72 7644.28 6296 7236.48 6024.67C6828.68 5753.33 6282.68 5862.47 6012.23 6269.38Z" fill="#60D8F9"/>
<path d="M6226.76 3397.66C6347.16 3512.47 6466.04 3641.12 6596.78 3774.07C6309.73 4063.22 6023.08 4386.08 5744.35 4736.6C5296.12 4745.87 4871.13 4793.14 4476.78 4861.12C4320.5 4064.26 4309.63 3354.51 4561.67 2959.94C4618.04 2871.68 4678.13 2811.94 4762.86 2765.14C5087.61 2594.38 5626.55 2832.23 6226.76 3397.66ZM7202.65 3815.59C8029.15 3088.25 8762.14 2810.58 9117.04 3050.42C9425.99 3259.21 9496.92 3834.87 9325.84 4652.08C9288.89 4812.93 9248.76 4990.21 9194.2 5161.46C8803.61 5046.16 8388.78 4951.64 7946.39 4883.1C7709.61 4492.67 7457.91 4125.6 7202.65 3815.59ZM11100.1 7047.78C11099.5 7140.28 11065 7228.51 11008.7 7316.77C10756.6 7711.34 10126.6 7988 9343.31 8149.89C9247.43 7750.62 9115.94 7338.43 8951.25 6903.8C9161.04 6506.7 9335.35 6107.91 9471.76 5716.96C9637.06 5772.93 9799.18 5845.32 9954.53 5916.86C10697.3 6259.04 11115.9 6668.24 11100.1 7047.78ZM8095.68 8317.61C8196.19 8177.42 8294.02 8024.27 8391.85 7871.11C8489.69 7717.95 8587.52 7564.8 8671.05 7416.85C8768.8 7687.31 8844.59 7957.8 8912.72 8223.11C8648.93 8264.11 8369.82 8294.75 8095.68 8317.61ZM8929.35 10572C8872.98 10660.2 8812.89 10720 8725.61 10765C8405.83 10928 7869.57 10703.1 7261.71 10132.5C7143.86 10019.4 7022.43 9889.07 6891.69 9756.11C7178.74 9466.97 7462.84 9142.38 7744.12 8793.59C8192.35 8784.32 8617.34 8737.04 9011.68 8669.06C9167.96 9465.93 9181.39 10177.4 8929.35 10572ZM6290.79 9706.81C5464.3 10434.2 4731.31 10711.8 4376.4 10472C4067.46 10263.2 3996.52 9687.52 4167.6 8870.32C4202.89 8712.06 4247.24 8533.91 4299.24 8360.93C4689.83 8476.24 5104.66 8570.76 5547.05 8639.3C5783.83 9029.73 6027.88 9391.63 6290.79 9706.81ZM2393.37 6474.62C2396.53 6383.84 2432.61 6293.01 2488.99 6204.76C2741.02 5810.19 3365.15 5536.99 4148.47 5375.1C4246.01 5771.78 4379.16 6181.38 4543.85 6616C4334.06 7013.1 4158.09 7414.48 4021.68 7805.44C3852.17 7750.34 3696.81 7678.8 3538.91 7605.54C2796.1 7263.36 2369.91 6848.99 2393.37 6474.62ZM5253.31 8143.48C4969.82 8089.41 4698.84 8021.49 4437.94 7949.23C4536.24 7692.33 4642.96 7433.69 4771.5 7163.79C4847.76 7330.53 4921.47 7495.55 5005.39 7667.47C5076.41 7819.53 5164.41 7979.34 5253.31 8143.48ZM6106.1 8719.79L6639.48 8771.78C6826.21 8782.76 6995.19 8792.9 7179.23 8790.91C6989.41 9019.41 6803.54 9224.56 6610.77 9417.61C6437.61 9196.54 6266.88 8965.95 6106.1 8719.79ZM7686.06 5290.65C7834.21 5539.42 7973.17 5796.85 8106.4 6068.99C8234.38 6326.44 8351.66 6606.38 8469.7 6879.4C8330.81 7131.17 8185.92 7375.16 8026.74 7624.37C7862.58 7881.36 7700.71 8117.59 7536.16 8340.87C7240.7 8345.6 6949.32 8338.23 6668.79 8319.6C6371.4 8304.45 6089.84 8270.26 5809.04 8229.16C5660.89 7980.38 5521.17 7729.87 5389.6 7455.13C5261.61 7197.68 5141.78 6916.02 5023.75 6643C5162.63 6391.23 5309.18 6144.64 5468.36 5895.44C5632.52 5638.45 5792.73 5404.8 5957.28 5181.53C6252.74 5176.79 6546.67 5185.9 6827.21 5204.53C7122.93 5222.27 7405.26 5249.54 7686.06 5290.65ZM9050.53 5580.95C8954.78 5839.58 8845.51 6096.49 8716.97 6366.4C8640.71 6199.65 8569.55 6036.36 8485.63 5864.44C8401.71 5692.52 8321.37 5537.88 8227.5 5381.53C8523.62 5432.99 8797.16 5502.64 9050.53 5580.95ZM6851.54 4760.13C6664.81 4749.15 6490.72 4735.56 6309.23 4739.27C6499.06 4510.78 6687.48 4307.35 6877.7 4112.57C7045.75 4330.2 7213.93 4559.06 7374.71 4805.22C7205.59 4783.84 7028.05 4764.21 6851.54 4760.13ZM5400.32 5206.51C5301.46 5344.11 5203.63 5497.26 5105.8 5650.42C5007.97 5803.57 4910.14 5956.73 4824.94 6107.27C4728.86 5834.22 4650.51 5562.01 4582.38 5296.69C4846.17 5255.69 5120.18 5221.6 5400.32 5206.51ZM4046.19 4934.34C3109.73 5141.4 2410.6 5497.69 2112.13 5964.94C2014.3 6118.1 1953.74 6281.58 1948.96 6449.3C1919.45 7027.7 2413.98 7581.17 3351.96 8006.94C3517.53 8085.38 3685.52 8154.3 3870.35 8219.75C3816.06 8413.48 3770.82 8587.31 3726.47 8765.46C3518.08 9784.15 3655.96 10524 4120.65 10838C4595.56 11159 5307.92 10993.7 6126.55 10387.4C6275.57 10280 6412.73 10168.3 6556.39 10035C6688.16 10183.5 6816.35 10314.7 6952.07 10439.9C7727.19 11160.7 8422.49 11411.3 8926.9 11153.8C9074.67 11082.7 9200.72 10959.8 9298.55 10806.6C9592.04 10347.1 9633.2 9538.76 9446.22 8572.49C10377.7 8373.22 11077.7 8021.26 11376.2 7554C11474 7400.85 11533.7 7233.05 11538.5 7065.33C11568 6486.92 11074.4 5937.78 10136.4 5512.01C9970.81 5433.57 9800.27 5362.92 9615.43 5297.47C9669.73 5103.74 9716.62 4927.32 9760.97 4749.17C9969.36 3730.48 9832.38 2994.96 9365.13 2679.2C8890.22 2358.26 8179.52 2520.91 7360.89 3127.21C7214.42 3236.35 7070.5 3347.21 6929.4 3482.27C6797.62 3333.75 6669.43 3202.52 6533.71 3077.36C5776.46 2368.64 5078.61 2116.31 4588.49 2368.57C4440.72 2439.66 4317.23 2564.33 4219.4 2717.48C3905.61 3174.38 3866.87 3973.25 4046.19 4934.34Z" fill="#60D8F9"/>
</g>
</svg>
